<?xml version="1.0" encoding="UTF-8"?>
<svg id="Layer_1" xmlns="http://www.w3.org/2000/svg" version="1.1" viewBox="0 0 2494 1001.7">
  <!-- Generator: Adobe Illustrator 29.5.1, SVG Export Plug-In . SVG Version: 2.1.0 Build 141)  -->
  <defs>
    <style>
      .st0 {
        fill: #fff;
      }

      .st1 {
        fill: #f90;
      }
    </style>
  </defs>
  <path class="st1" d="M595.2,80.9l101.5.4c34.1.2,68.9.2,102.7,4.7,24.1,3.1,47.4,11.9,65,28.9,14.7,14.1,20.2,32.7,28.6,50.8l32.7,71.7c6.3,14,12.3,27.4,19.1,41.2,6.4,12.8,19.7,19.1,23.5,30.8,5.5,17.2,4.6,42.9,4.8,61.4l.2,9.4c-4,0-13.5-.4-16.9.3-10.4,2.1-8.7,24.3-2.2,30,5.8,5.2,17.9-1.4,20.1,4.9-.2,10.8,4,9.7,11.1,17,.3,12.8,2.9,35.8-6.1,44.8-1.6,1.6-5.6,4.6-7.5,6.1-1,4.6-1.4,10.7-5.3,13.9-7.8,6.4-77.5,4-91.4,3.8.2-27.1-4.6-50.7-24.3-70.8-15.4-15.6-36.4-24.5-58.3-24.8-22.8,0-44.6,9.3-60.6,25.6-16.6,16.8-24.1,38.7-23.7,62.2,0,2.7.2,5.4.5,8l-271.6-.2c14.6-21.4,30.7-44.6,46.1-65.5l7.7-10.6c8.5-13.6,21.6-31.2,31-44.6l61.4-87.8,54.3.2c10.6,0,21.3.4,31.9-.5,11.8-1,14.6-8.5,14.7-19.1.3-33.4,0-66.7,0-100.1s2.1-26.9-13.4-28.4c-12.2-1.2-25.3-.6-37.6-.6-22.6.1-45.3.1-67.9,0,9.7-21.2,19.7-42.2,30-63.1h0Z"/>
  <path d="M490.8,425c20.3-.6,41.8-.5,62.2-.2,52.7.8,106.2-1.2,158.8,0l-7.8,11.2c-19.6,0-219.1.4-220.8-.5l7.7-10.6h-.1Z"/>
  <path d="M974.3,415.4c-.2,2.8,0,2.9-1,5.5-3.9,2.9-22,.4-25.9-3.7-5-4.4-6.1-10.2-6.6-16.7-2.2-28.7,7.6-30,32.3-29.7l.2,9.4c-4,0-13.5-.4-16.9.3-10.4,2.1-8.7,24.3-2.2,30,5.8,5.2,17.9-1.4,20.1,4.9h0Z"/>
  <path class="st0" d="M748.6,147.1c27-1.1,60.5-.6,87.1,1.3,25.5,1.9,34.6,40,44.2,58.7,4.5,8.7,8.9,20.3,13.4,29.3,5.3,16.3,34,53,1.5,56.3-20.4,0-146.9,2.6-155.1-2.8-3.3-2.2-6.8-6.4-7.6-10.4-2.7-12.9-.8-33.9-.7-47.5,0-22.2-1.5-45.6.5-67.6.3-3.4.8-6.3,2.8-9.2,3.3-4.8,8.3-6.8,13.9-7.9v-.2h0Z"/>
  <path d="M739.6,324.7c11.6-.4,43.9-5.5,39.7,14.5-2.2,2.8-.8,1.9-4.3,2.8-11.2,0-24.3,1.6-35.1-.7-7.7-1.6-9.4-13.4-.2-16.5h-.1Z"/>
  <path d="M867.3,424.8c14.4-.1,44.4-1.3,59.7,1,.8.7,1.7,1.5,2.5,2.2,1.4,3.1,1,3.8.3,7.2-6.1,2-44.9,1.2-54.3,1.1l-8.2-11.5h0Z"/>
  <path class="st1" d="M45,323.1c.2-50.3,3.5-97.2,11-147,3.3-21.7,3.5-45.8,12-66.3,13.8-32.7,55.6-28.8,85-28.8h59.6l215-.2-21,63.1h-62.3c-11.8-.2-23.5-.6-35.3.3-16.7,1.2-15.7,15.2-15.7,27.3,0,33.9-.2,67.4,0,101.3,0,6.3.4,11.7,5.6,16,2,1.7,4.4,3.3,7,3.4,49.6,2,100.1-.5,149.7.7-14.7,43.5-29.7,88.8-45.1,131.9l-3.4,11c-7.8,21.2-14.6,43.6-22.4,65h-39.3c.4-3.8.5-7.6.5-11.3-.3-22.6-9.7-45.5-26-61.3-15.4-14.9-36.1-23.1-57.5-22.8-22.4.6-43.8,9.9-59.5,25.9-18.6,19.3-23.4,41-22.9,66.8-27.1-2.2-54.1-4.5-81.2-7.1-18.7-1.8-38-3-56.2-8.3-13-3.8-13.7-15.7-13.9-27.5-.3-17.7-1.6-19,15-25.4,1.3-20.7,0-41.5,1-62.2l.3-44.6h0Z"/>
  <path d="M45,323.1c34.1,4.8,25.4,29.1,26.2,55.8.8,25.1,2.5,36.6-26.5,36.6,0-15.7.4-32.3,0-47.9l.3-44.6h0Z"/>
  <path d="M341.4,424.9h69.1l-3.4,10.9c-18.7.9-39.2-.1-58.6.6l-7.1-11.5Z"/>
  <path class="st0" d="M106.4,144.1c5.8-.3,11.7-.2,17.5-.2,43.7.2,87.5-.4,131.2.3,3.3,0,10,1,12.3,3.1,3.3,2.8,5.7,7.2,5.5,11.6.5,22,.3,45.3.1,67.3,0,11.8.9,45.2-.9,55.4-.4,2.4-1.6,4.6-3.3,6.3-3.9,4.1-8.3,4.7-13.6,4.9h-100.3c-13.5.2-41,2.2-53-1.3-6-1.7-10.8-6.2-13.5-11.8-2-4-2.5-8-2.6-12.4-.3-11.9,6.1-105,8.5-111.5,2.4-6.4,6.1-8.9,12-11.8h0Z"/>
  <path d="M84.5,424.9c32-.9,69.2-.2,101.4,0l-6.8,9.5c-2.4,3.3-75.4.6-85,1.8-4.7.6-10.5.1-12.8-4.7.4-3.4,1.2-4,3.3-6.7h0Z"/>
  <path d="M465.7,21.6c44-1.2,94.8,0,139.5,0-26.8,57.9-57.8,117-85.4,175.1h110c-5.8,9-15,21.2-21.4,30.3l-40.5,57.3-111.9,159.5c-20.6,29.7-43.2,62.5-64.5,91.4l88.2-257.6c-32.4-.8-66.7,0-99.5-.2,28-85.5,56.5-170.7,85.5-255.9h0Z"/>
  <path d="M785.4,423.2c36.7-3.4,69.2,23.5,72.8,60.2s-23.1,69.4-59.8,73.2c-37,3.8-70-23.2-73.6-60.1-3.6-37,23.6-69.8,60.5-73.2h0Z"/>
  <path class="st0" d="M788.5,457.7c17.8-1.7,33.6,11.3,35.3,29.1,1.7,17.8-11.3,33.6-29.1,35.3s-33.6-11.3-35.3-29.1c-1.7-17.8,11.3-33.6,29.1-35.3h0Z"/>
  <path d="M256.5,423.3c36.8-3.4,69.4,23.8,72.8,60.6s-23.9,69.4-60.7,72.7c-36.8,3.3-69.2-23.9-72.6-60.6-3.3-36.8,23.8-69.3,60.5-72.7h0Z"/>
  <path class="st0" d="M257.5,457.8c17.8-2.9,34.5,9.1,37.4,26.9,2.8,17.8-9.4,34.5-27.2,37.2-17.6,2.7-34.1-9.4-36.9-27-2.8-17.6,9.2-34.2,26.7-37.1h0Z"/>
  <g>
    <path d="M1051.4,443V163h97.2v195.6h142l-.4,84.4h-238.8,0Z"/>
    <path d="M1571.4,453l-150.8-118h-3.6v108h-97.2V153h10.4l150.4,118.4h4v-108.4h97.2v290h-10.4Z"/>
    <path class="st1" d="M1622.6,163h140c27.2,0,49.3,5.9,66.2,17.6,16.9,11.7,25.4,27.9,25.4,48.4s-12.4,43.7-37.2,56v4.4c19.7,5.3,35.3,14.3,46.8,26.8s17.2,27.9,17.2,46-10.3,45.5-31,59.6-47.1,21.2-79.4,21.2h-148V163ZM1720.2,239v32.8h24.4c5.6,0,10-1.5,13.2-4.6s4.8-7,4.8-11.8-1.6-9.1-4.8-12c-3.2-2.9-7.6-4.4-13.2-4.4h-24.4ZM1720.2,323.4v40.4h31.6c6.7,0,12-1.9,16-5.8s6-8.7,6-14.6-2-11-6-14.6-9.5-5.4-16.4-5.4h-31.2Z"/>
    <path class="st1" d="M1906.6,310.2v-147.2h97.2v141.6c0,39.7,14.7,59.6,44,59.6s43.6-19.2,43.6-57.6v-143.6h97.6v145.2c0,47.2-12.5,82.4-37.6,105.6-25.1,23.5-59.9,35.2-104.4,35.2s-79.1-11.5-103.6-34.6-36.8-57.8-36.8-104.2h0Z"/>
    <path class="st1" d="M2231,337.8c32.3,24,66,36,101.2,36s17.2-1.1,23.6-3.2c6.4-2.1,9.6-5.2,9.6-9.2s-2.7-7.3-8.2-9.8-15.8-5.4-31-8.6c-32-6.7-58.1-17.9-78.4-33.8-20.3-15.9-30.4-36.5-30.4-61.8s10.5-49.7,31.6-66,52.4-24.4,94-24.4,62.7,4.1,92.8,12.4v77.6c-25.9-10.4-51.7-15.6-77.6-15.6s-19.6,1.2-27.6,3.6-12,5.7-12,10,2.5,6.8,7.6,9.2c5.1,2.4,14.9,4.9,29.6,7.6,72.3,13.6,108.4,44.7,108.4,93.2s-10.7,50.7-32,68-51.9,26-91.6,26-51.9-3.6-78-10.8c-26.1-7.2-47.1-16.5-62.8-28l31.2-72.4h0Z"/>
  </g>
  <g>
    <path class="st1" d="M34.7,628.7h131l54,126h5l67-138.5h14.5l67,138.5h5l54-126h131.5l-153,362.5h-28.5l-80.5-153.5h-5.5l-80.5,153.5h-28L34.7,628.7Z"/>
    <path class="st1" d="M713.7,616.2h16.5l176.5,362.5h-125.5l-12-25.5h-95l-12,25.5h-125l176.5-362.5ZM698.7,900.7h46.5l-21-51.5h-4.5l-21,51.5Z"/>
    <path class="st1" d="M985.7,978.7v-350h121.5v244.5h177.5l-.5,105.5h-298.5,0Z"/>
    <path class="st1" d="M1374.2,978.7v-350h121.5v244.5h177.5l-.5,105.5h-298.5Z"/>
    <path class="st1" d="M2056.2,628.7l.5,105.5h-172.5v28h140.5v81.5h-140.5v29.5h172.5l-.5,105.5h-293.5v-350h293.5Z"/>
    <path class="st1" d="M2147.6,628.7h317.5v105h-97v245h-124v-245h-96.5v-105Z"/>
  </g>
</svg>